<svg width="14" height="17" viewBox="0 0 14 17" fill="none" xmlns="http://www.w3.org/2000/svg">
<g opacity="0.299219">
<path fill-rule="evenodd" clip-rule="evenodd" d="M6.91558 0.375C8.47498 0.375 9.98902 0.90156 11.1828 1.8578V1.85776C12.7422 3.10612 13.6594 4.88112 13.7703 6.85456C13.8765 8.80292 13.1484 10.7092 11.7734 12.0842L7.21542 16.5826C7.03886 16.7576 6.73263 16.756 6.55606 16.581L2.06246 12.0874C0.684342 10.7093 -0.0453501 8.80148 0.0624619 6.8546C0.171822 4.88124 1.09058 3.10624 2.64838 1.8578C3.84058 0.90156 5.35622 0.375 6.91558 0.375ZM3.8531 7.23452C3.8531 8.92356 5.2265 10.297 6.91558 10.297C8.60462 10.297 9.97962 8.9236 9.97806 7.23452C9.97806 5.54548 8.60466 4.17204 6.91558 4.17204C5.22654 4.17204 3.8531 5.54544 3.8531 7.23452Z" fill="white"/>
<path d="M6.9156 5.7417C6.09216 5.7417 5.4234 6.41046 5.4234 7.2339C5.4234 8.05734 6.09216 8.7261 6.9156 8.7261C7.73904 8.7261 8.4078 8.05734 8.4078 7.2339C8.4078 6.41046 7.73904 5.7417 6.9156 5.7417Z" fill="white"/>
</g>
</svg>
